<svg xmlns="http://www.w3.org/2000/svg" xmlns:xlink="http://www.w3.org/1999/xlink" width="49.067" height="46.135" viewBox="0 0 49.067 46.135">
  <defs>
    <linearGradient id="linear-gradient" x1="0.5" x2="0.5" y2="1" gradientUnits="objectBoundingBox">
      <stop offset="0" stop-color="#ff4495"/>
      <stop offset="1" stop-color="#ff6d6d"/>
    </linearGradient>
  </defs>
  <g id="app" transform="translate(9.149 2)">
    <g id="Icon_feather-smartphone" data-name="Icon feather-smartphone" transform="translate(0 0)">
      <path id="Path_2823" data-name="Path 2823" d="M11.714,3H32.781a4.214,4.214,0,0,1,4.214,4.214V40.922a4.214,4.214,0,0,1-4.214,4.214H11.714A4.214,4.214,0,0,1,7.5,40.922V7.214A4.214,4.214,0,0,1,11.714,3Z" transform="translate(-7.5 -3)" fill="none" stroke="#ff4495" stroke-linecap="round" stroke-linejoin="round" stroke-width="4"/>
      <path id="Path_2824" data-name="Path 2824" d="M18,27h0" transform="translate(-3.253 6.708)" fill="none" stroke="#ff4495" stroke-linecap="round" stroke-linejoin="round" stroke-width="4"/>
    </g>
    <path id="Subtraction_11" data-name="Subtraction 11" d="M2,0H16.508a2,2,0,0,1,2,2v8.59a2,2,0,0,1-2,2H2a2,2,0,0,1-2-2V2A2,2,0,0,1,2,0Z" transform="translate(21.41 16.765)" opacity="0.9" fill="url(#linear-gradient)"/>
    <path id="Subtraction_13" data-name="Subtraction 13" d="M2,0H14.153a2,2,0,0,1,2,2V8.988a2,2,0,0,1-2,2H2a2,2,0,0,1-2-2V2A2,2,0,0,1,2,0Z" transform="translate(-9.149 5.778)" opacity="0.9" fill="url(#linear-gradient)"/>
    <line id="Line_299" data-name="Line 299" x2="9.254" transform="translate(23.563 19.307)" fill="none" stroke="#fff" stroke-linecap="round" stroke-width="0.5"/>
    <line id="Line_330" data-name="Line 330" x2="8.076" transform="translate(-7.27 7.996)" fill="none" stroke="#fff" stroke-linecap="round" stroke-width="0.5"/>
    <line id="Line_300" data-name="Line 300" x2="7.118" transform="translate(23.563 21.483)" fill="none" stroke="#fff" stroke-linecap="round" stroke-width="0.5"/>
    <line id="Line_329" data-name="Line 329" x2="6.212" transform="translate(-7.27 9.895)" fill="none" stroke="#fff" stroke-linecap="round" stroke-width="0.5"/>
    <path id="Path_2825" data-name="Path 2825" d="M0,0H3.559" transform="translate(23.563 23.659)" fill="none" stroke="#fff" stroke-linecap="round" stroke-width="0.5"/>
    <path id="Path_2826" data-name="Path 2826" d="M0,0H3.106" transform="translate(-7.27 11.794)" fill="none" stroke="#fff" stroke-linecap="round" stroke-width="0.5"/>
  </g>
</svg>
