<svg xmlns="http://www.w3.org/2000/svg" xmlns:xlink="http://www.w3.org/1999/xlink" width="61.928" height="53.202" viewBox="0 0 61.928 53.202">
  <defs>
    <linearGradient id="linear-gradient" x1="0.5" x2="0.5" y2="1" gradientUnits="objectBoundingBox">
      <stop offset="0" stop-color="#ff4495"/>
      <stop offset="1" stop-color="#ff6d6d"/>
    </linearGradient>
  </defs>
  <g id="digital" transform="translate(0 0)">
    <path id="Path_2816" data-name="Path 2816" d="M482.418,158.406l16.533,29.769,5.7-1.145c.032-.006.062-.016.093-.025l.265.477a1.5,1.5,0,0,0,2.63-1.461l-5.37-9.668a8.3,8.3,0,0,0-8.063-14.518l-5.369-9.668a1.5,1.5,0,0,0-2.63,1.461l.265.477c-.023.022-.048.042-.07.066Zm20.45,8.118a5.3,5.3,0,0,1-2.058,7.2l-5.142-9.258A5.3,5.3,0,0,1,502.868,166.524Z" transform="translate(-459.097 -151.394)" fill="url(#linear-gradient)"/>
    <path id="Path_2817" data-name="Path 2817" d="M291.449,259.261a5.716,5.716,0,0,0,7.772,2.222l1.578-.876.7,1.263a1.745,1.745,0,0,0,2.373.678l.018-.01a2.084,2.084,0,0,1,2.588.484q.115.133.245.258l8.487,8.231a4.089,4.089,0,0,0,5.694-5.871l-6.726-6.524,11.206-2.251-15.6-28.091L298.275,241a1.682,1.682,0,0,0-.382.658,1.753,1.753,0,0,0-.2.093l-4.1,2.279a1.745,1.745,0,0,0-.678,2.373l.234.421-1.578.876a5.716,5.716,0,0,0-2.222,7.772Zm1.579-8.93,1.578-.876,4.733,8.521-1.578.876a2.711,2.711,0,0,1-3.682-1.052l-2.1-3.787A2.71,2.71,0,0,1,293.028,250.331Z" transform="translate(-288.626 -219.462)" fill="url(#linear-gradient)"/>
    <path id="Path_2818" data-name="Path 2818" d="M666.744,166.876a1.5,1.5,0,0,0,2.09-.4l3.61-5.295a1.5,1.5,0,1,0-2.486-1.695l-3.61,5.295A1.5,1.5,0,0,0,666.744,166.876Z" transform="translate(-620.664 -157.939)" fill="#ff6d6d"/>
    <path id="Path_2819" data-name="Path 2819" d="M706.231,297.762a1.5,1.5,0,0,0,1.341-2.693l-5.737-2.856a1.5,1.5,0,0,0-1.341,2.693Z" transform="translate(-650.197 -275.129)" fill="#ff6d6d"/>
    <path id="Path_2820" data-name="Path 2820" d="M689.76,195.644a1.5,1.5,0,0,0,2.09.4l10.68-7.284a1.5,1.5,0,1,0-1.7-2.485l-10.68,7.284A1.5,1.5,0,0,0,689.76,195.644Z" transform="translate(-641.258 -181.843)" fill="#ff4495"/>
  </g>
</svg>
