<svg xmlns="http://www.w3.org/2000/svg" width="139" height="119" viewBox="0 0 139 119"><defs><style>.a{fill:#ffd9d9;}</style></defs><g transform="translate(-1334.804 -1114)"><circle class="a" cx="3.5" cy="3.5" r="3.5" transform="translate(1334.804 1114)"/><circle class="a" cx="3.5" cy="3.5" r="3.5" transform="translate(1361.804 1114)"/><circle class="a" cx="3.5" cy="3.5" r="3.5" transform="translate(1387.804 1114)"/><circle class="a" cx="3.5" cy="3.5" r="3.5" transform="translate(1413.804 1114)"/><circle class="a" cx="3.5" cy="3.5" r="3.5" transform="translate(1440.804 1114)"/><circle class="a" cx="3.5" cy="3.5" r="3.5" transform="translate(1466.804 1114)"/><circle class="a" cx="3.5" cy="3.5" r="3.5" transform="translate(1334.804 1136)"/><circle class="a" cx="3.5" cy="3.5" r="3.5" transform="translate(1361.804 1136)"/><circle class="a" cx="3.5" cy="3.5" r="3.5" transform="translate(1387.804 1136)"/><circle class="a" cx="3.5" cy="3.5" r="3.5" transform="translate(1413.804 1136)"/><circle class="a" cx="3.5" cy="3.5" r="3.5" transform="translate(1440.804 1136)"/><circle class="a" cx="3.5" cy="3.5" r="3.5" transform="translate(1466.804 1136)"/><circle class="a" cx="3.5" cy="3.5" r="3.5" transform="translate(1334.804 1159)"/><circle class="a" cx="3.5" cy="3.5" r="3.5" transform="translate(1361.804 1159)"/><circle class="a" cx="3.5" cy="3.5" r="3.5" transform="translate(1387.804 1159)"/><circle class="a" cx="3.5" cy="3.5" r="3.5" transform="translate(1413.804 1159)"/><circle class="a" cx="3.5" cy="3.5" r="3.5" transform="translate(1440.804 1159)"/><circle class="a" cx="3.5" cy="3.5" r="3.5" transform="translate(1466.804 1159)"/><circle class="a" cx="3.5" cy="3.5" r="3.5" transform="translate(1334.804 1181)"/><circle class="a" cx="3.5" cy="3.5" r="3.5" transform="translate(1361.804 1181)"/><circle class="a" cx="3.5" cy="3.5" r="3.5" transform="translate(1387.804 1181)"/><circle class="a" cx="3.5" cy="3.5" r="3.5" transform="translate(1413.804 1181)"/><circle class="a" cx="3.5" cy="3.5" r="3.5" transform="translate(1440.804 1181)"/><circle class="a" cx="3.5" cy="3.5" r="3.5" transform="translate(1466.804 1181)"/><circle class="a" cx="3.5" cy="3.5" r="3.5" transform="translate(1334.804 1204)"/><circle class="a" cx="3.5" cy="3.5" r="3.5" transform="translate(1361.804 1204)"/><circle class="a" cx="3.5" cy="3.5" r="3.5" transform="translate(1387.804 1204)"/><circle class="a" cx="3.5" cy="3.5" r="3.5" transform="translate(1413.804 1204)"/><circle class="a" cx="3.5" cy="3.5" r="3.5" transform="translate(1440.804 1204)"/><circle class="a" cx="3.5" cy="3.5" r="3.5" transform="translate(1466.804 1204)"/><circle class="a" cx="3.5" cy="3.5" r="3.5" transform="translate(1334.804 1226)"/><circle class="a" cx="3.5" cy="3.5" r="3.5" transform="translate(1361.804 1226)"/><circle class="a" cx="3.5" cy="3.5" r="3.5" transform="translate(1387.804 1226)"/><circle class="a" cx="3.5" cy="3.5" r="3.5" transform="translate(1413.804 1226)"/><circle class="a" cx="3.5" cy="3.5" r="3.5" transform="translate(1440.804 1226)"/><circle class="a" cx="3.5" cy="3.5" r="3.5" transform="translate(1466.804 1226)"/></g></svg>