<svg xmlns="http://www.w3.org/2000/svg" xmlns:xlink="http://www.w3.org/1999/xlink" width="56.007" height="34.301" viewBox="0 0 56.007 34.301"><defs><style>.a{fill:#706b63;}.b{clip-path:url(#a);}.c{fill:none;}</style><clipPath id="a"><path class="a" d="M129.654,70.122a.644.644,0,0,0-.644,0L123.675,73.2a.644.644,0,0,0-.322.558v6.161a.645.645,0,0,0,.322.558l5.334,3.081a.645.645,0,0,0,.645,0l5.333-3.081a.645.645,0,0,0,.322-.558V73.758a.644.644,0,0,0-.322-.558Z" transform="translate(-123.353 -70.035)"/></clipPath></defs><g transform="translate(-7.305 -8.127)"><g transform="translate(28.868 28.627)"><path class="a" d="M183.742,183.842a1.06,1.06,0,0,1-.53-.142l-1.689-1c-.252-.141-.129-.191-.046-.22a3.371,3.371,0,0,0,.764-.347.13.13,0,0,1,.126.01l1.3.77a.166.166,0,0,0,.157,0l5.058-2.919a.159.159,0,0,0,.077-.137V174.02a.163.163,0,0,0-.078-.139l-5.056-2.917a.158.158,0,0,0-.156,0l-5.055,2.918a.163.163,0,0,0-.08.139v5.837a.155.155,0,0,0,.08.135l1.386.8c.752.376,1.212-.067,1.212-.512v-5.763a.146.146,0,0,1,.147-.146H182a.146.146,0,0,1,.147.146v5.763a1.4,1.4,0,0,1-1.5,1.579,2.164,2.164,0,0,1-1.165-.317l-1.326-.764a1.068,1.068,0,0,1-.53-.923V174.02a1.066,1.066,0,0,1,.53-.922l5.058-2.923a1.108,1.108,0,0,1,1.063,0l5.058,2.923a1.068,1.068,0,0,1,.531.922v5.837a1.071,1.071,0,0,1-.531.923l-5.058,2.92A1.061,1.061,0,0,1,183.742,183.842Z" transform="translate(-177.623 -170.039)"/><path class="a" d="M219.826,208.637c-2.213,0-2.677-1.016-2.677-1.868a.145.145,0,0,1,.146-.146h.654a.147.147,0,0,1,.145.124c.1.666.393,1,1.732,1,1.066,0,1.519-.241,1.519-.806,0-.326-.129-.568-1.785-.73-1.384-.137-2.24-.443-2.24-1.55,0-1.021.86-1.629,2.3-1.629,1.62,0,2.422.562,2.524,1.769a.146.146,0,0,1-.146.159h-.656a.146.146,0,0,1-.142-.114c-.158-.7-.54-.924-1.58-.924-1.163,0-1.3.405-1.3.709,0,.368.16.475,1.73.683,1.554.205,2.293.5,2.293,1.589S221.429,208.637,219.826,208.637Z" transform="translate(-212.145 -198.856)"/></g><g transform="translate(41.894 31.311)"><path class="a" d="M282.45,192.215a.975.975,0,1,1-.975-.975A.977.977,0,0,1,282.45,192.215Zm-1.792,0a.817.817,0,1,0,.815-.815A.818.818,0,0,0,280.658,192.212Zm.451-.544h.377c.129,0,.382,0,.382.289a.251.251,0,0,1-.207.268c.15.01.16.108.181.248a1.079,1.079,0,0,0,.057.289h-.232c-.005-.051-.042-.33-.042-.345-.015-.062-.036-.093-.113-.093h-.191v.438h-.212v-1.094Zm.207.48h.17a.147.147,0,0,0,.165-.155c0-.15-.1-.15-.16-.15h-.175v.3Z" transform="translate(-280.501 -191.24)"/></g><path class="a" d="M19.325,72.917A.647.647,0,0,0,19,72.354l-5.362-3.086a.633.633,0,0,0-.3-.085h-.055a.64.64,0,0,0-.3.085L7.629,72.354a.65.65,0,0,0-.324.563l.012,8.31a.318.318,0,0,0,.162.28.312.312,0,0,0,.322,0l3.187-1.825a.653.653,0,0,0,.324-.562V75.237a.645.645,0,0,1,.323-.561l1.357-.782a.645.645,0,0,1,.325-.087.635.635,0,0,1,.322.087l1.357.782a.646.646,0,0,1,.324.561V79.12a.654.654,0,0,0,.325.562l3.186,1.825a.316.316,0,0,0,.324,0,.324.324,0,0,0,.161-.28Z" transform="translate(0 -53.326)"/><path class="a" d="M247.4,8.168a.324.324,0,0,0-.482.283v8.229a.227.227,0,0,1-.34.2l-1.343-.774a.648.648,0,0,0-.647,0l-5.365,3.1a.648.648,0,0,0-.324.561v6.193a.648.648,0,0,0,.324.561l5.364,3.1a.648.648,0,0,0,.648,0l5.365-3.1a.648.648,0,0,0,.324-.561V10.515a.648.648,0,0,0-.332-.566Zm-.5,15.75a.161.161,0,0,1-.081.14l-1.842,1.062a.162.162,0,0,1-.162,0l-1.842-1.062a.162.162,0,0,1-.081-.14V21.792a.162.162,0,0,1,.081-.14l1.842-1.064a.162.162,0,0,1,.162,0l1.842,1.064a.162.162,0,0,1,.081.14v2.127Z" transform="translate(-202.272)"/><g transform="translate(51.324 15.933)"><path class="a" d="M366.655,75.58a.648.648,0,0,0,.322-.56v-1.5a.648.648,0,0,0-.323-.56l-5.33-3.095a.648.648,0,0,0-.649,0l-5.363,3.1a.648.648,0,0,0-.324.561v6.191a.648.648,0,0,0,.327.563l5.329,3.037a.647.647,0,0,0,.635,0l3.223-1.792a.324.324,0,0,0,0-.564l-5.4-3.1a.324.324,0,0,1-.163-.281V75.64a.324.324,0,0,1,.162-.281l1.68-.968a.324.324,0,0,1,.323,0l1.68.968a.324.324,0,0,1,.162.281v1.527a.324.324,0,0,0,.487.28Z" transform="translate(-354.989 -69.777)"/><path class="a" d="M394.318,113.209a.124.124,0,0,1,.124,0l1.029.594a.124.124,0,0,1,.062.108V115.1a.124.124,0,0,1-.062.108l-1.029.594a.124.124,0,0,1-.124,0l-1.029-.594a.124.124,0,0,1-.062-.108V113.91a.124.124,0,0,1,.062-.108Z" transform="translate(-388.386 -107.695)"/></g><g transform="translate(21.998 15.965)"><path class="a" d="M129.654,70.122a.644.644,0,0,0-.644,0L123.675,73.2a.644.644,0,0,0-.322.558v6.161a.645.645,0,0,0,.322.558l5.334,3.081a.645.645,0,0,0,.645,0l5.333-3.081a.645.645,0,0,0,.322-.558V73.758a.644.644,0,0,0-.322-.558Z" transform="translate(-123.353 -70.035)"/><g class="b"><path class="c" d="M128.69,70.125,123.345,73.2a.666.666,0,0,0-.345.558v6.161a.623.623,0,0,0,.166.41l6.006-10.274A.655.655,0,0,0,128.69,70.125Z" transform="translate(-123.045 -70.039)"/><path class="c" d="M171.988,106.213a.64.64,0,0,0,.15-.062l5.34-3.081a.657.657,0,0,0,.335-.558V96.35a.637.637,0,0,0-.195-.447Z" transform="translate(-165.83 -92.628)"/><path class="a" d="M135.836,73.336l-5.349-3.078a.639.639,0,0,0-.167-.067l-6.006,10.274a.735.735,0,0,0,.18.148l5.358,3.081a.65.65,0,0,0,.5.062l5.631-10.31A.709.709,0,0,0,135.836,73.336Z" transform="translate(-124.191 -70.171)"/></g><g class="b"><path class="c" d="M177.408,80.016V73.854a.66.66,0,0,0-.338-.558l-5.349-3.078a.643.643,0,0,0-.2-.072l5.864,10.018A.584.584,0,0,0,177.408,80.016Z" transform="translate(-165.425 -70.132)"/><path class="c" d="M123.345,94.9a.666.666,0,0,0-.345.558v6.161a.669.669,0,0,0,.346.558l5.358,3.081a.649.649,0,0,0,.412.08l-5.74-10.457Z" transform="translate(-123.045 -91.739)"/><path class="a" d="M166.12,61.779l-.073.042h.1Z" transform="translate(-160.642 -62.824)"/><path class="a" d="M137.292,80.486a.674.674,0,0,0,.315-.41l-5.864-10.018a.653.653,0,0,0-.453.072l-5.313,3.06,5.74,10.457a.647.647,0,0,0,.236-.08Z" transform="translate(-125.644 -70.044)"/><path class="a" d="M219.035,151.313l-.035-.06v.081Z" transform="translate(-206.89 -140.97)"/><path class="a" d="M176.889,149.685l-5.34,3.081a.644.644,0,0,1-.236.08l.106.194,5.931-3.433v-.081l-.147-.25A.674.674,0,0,1,176.889,149.685Z" transform="translate(-165.241 -139.243)"/><path class="a" d="M176.889,149.685l-5.34,3.081a.644.644,0,0,1-.236.08l.106.194,5.931-3.433v-.081l-.147-.25A.674.674,0,0,1,176.889,149.685Z" transform="translate(-165.241 -139.243)"/></g></g></g></svg>