<svg xmlns="http://www.w3.org/2000/svg" width="48.391" height="43.058" viewBox="0 0 48.391 43.058"><defs><style>.a{fill:#ff6d6d;}</style></defs><g transform="translate(-18.5 -50.212)"><circle class="a" cx="4.324" cy="4.324" r="4.324" transform="translate(38.38 67.37)"/><g transform="translate(18.5 61.874)"><path class="a" d="M42.7,205.325a48.948,48.948,0,0,1-15.349-2.076,19.5,19.5,0,0,1-6.322-3.385c-1.654-1.413-2.532-2.954-2.532-4.445,0-2.86,3.135-5.659,8.4-7.485A49.785,49.785,0,0,1,42.7,185.6a49.339,49.339,0,0,1,15.591,2.291,19.818,19.818,0,0,1,6.116,3.222c1.628,1.361,2.489,2.851,2.489,4.307,0,2.972-3.506,5.978-9.156,7.847A49.693,49.693,0,0,1,42.7,205.325Zm0-17.658a48.352,48.352,0,0,0-15.117,2.214c-4.841,1.688-7.011,4-7.011,5.539,0,1.6,2.334,4.126,7.451,5.874A47.063,47.063,0,0,0,42.7,203.258,47.434,47.434,0,0,0,57.089,201.3c5.315-1.766,7.744-4.29,7.744-5.883a4.013,4.013,0,0,0-1.749-2.722,17.727,17.727,0,0,0-5.461-2.86A47.676,47.676,0,0,0,42.7,187.667Z" transform="translate(-18.5 -185.6)"/></g><g transform="translate(27.86 50.212)"><path class="a" d="M132.193,93.245a4.541,4.541,0,0,1-2.308-.569c-2.472-1.43-3.333-5.547-2.291-11.017a49.656,49.656,0,0,1,5.874-14.85,49.559,49.559,0,0,1,9.768-12.361,19.664,19.664,0,0,1,5.849-3.687,5.871,5.871,0,0,1,4.97-.009c2.575,1.482,3.428,6.03,2.222,11.852a49.885,49.885,0,0,1-5.728,14.057,49.132,49.132,0,0,1-9.466,12.257,19.522,19.522,0,0,1-6.09,3.781A8.4,8.4,0,0,1,132.193,93.245Zm2.162-25.918.9.517a48.122,48.122,0,0,0-5.633,14.2c-.956,5.039-.034,8.071,1.292,8.838a2.549,2.549,0,0,0,1.283.293c1.714,0,4.41-1.085,7.528-3.807a47.1,47.1,0,0,0,9.036-11.732,47.693,47.693,0,0,0,5.5-13.437c1.128-5.487.155-8.846-1.232-9.647a4.027,4.027,0,0,0-3.23.155,17.591,17.591,0,0,0-5.2,3.308,47.489,47.489,0,0,0-9.337,11.835Z" transform="translate(-127.159 -50.212)"/></g><g transform="translate(27.87 50.254)"><path class="a" d="M151.929,93.713c-2.343,0-5.315-1.413-8.416-4.083a49.645,49.645,0,0,1-9.932-12.507h0A49.439,49.439,0,0,1,127.75,62.48a19.76,19.76,0,0,1-.276-6.908c.362-2.093,1.215-3.583,2.481-4.315,2.567-1.49,6.934.043,11.379,4a49.745,49.745,0,0,1,9.311,11.982,48.934,48.934,0,0,1,5.892,14.324,19.69,19.69,0,0,1,.241,7.167c-.4,2.145-1.292,3.669-2.584,4.419A4.424,4.424,0,0,1,151.929,93.713ZM135.374,76.089a48.163,48.163,0,0,0,9.492,11.973c3.885,3.342,6.968,4.066,8.3,3.29,1.387-.8,2.4-4.083,1.352-9.389a47.164,47.164,0,0,0-5.659-13.687,47.686,47.686,0,0,0-8.9-11.473c-4.186-3.721-7.58-4.557-8.967-3.756a4.018,4.018,0,0,0-1.482,2.877,17.617,17.617,0,0,0,.267,6.159,47.434,47.434,0,0,0,5.59,14.006Z" transform="translate(-127.284 -50.696)"/></g></g></svg>