<svg xmlns="http://www.w3.org/2000/svg" width="24.163" height="21.899" viewBox="0 0 24.163 21.899"><defs><style>.a{fill:#fff;}</style></defs><path class="a" d="M1.537,8.615l-.9,1.217H5.057l.337-6.389ZM19.565,2.92l-6.286-.67,6.633,7.2ZM5.678,11.357,5.13,10.281H.677L11.671,23.074Zm.1-1.525H19.658L15.674,5.506,12.722,2.3Zm14.533.445-6.545,12.8L24.752,10.281H20.308ZM20.5,4.059l-.459-.616.044.846.3,5.543H24.8ZM5.741,5.256,5.516,9.441,12.154,2.25l-6.286.67ZM19.8,10.277H5.629L7.7,14.329l5.02,9.821Z" transform="translate(-0.633 -2.25)"/></svg>