<svg xmlns="http://www.w3.org/2000/svg" xmlns:xlink="http://www.w3.org/1999/xlink" width="42.04" height="51.284" viewBox="0 0 42.04 51.284">
  <defs>
    <linearGradient id="linear-gradient" x1="0.5" x2="0.5" y2="1" gradientUnits="objectBoundingBox">
      <stop offset="0" stop-color="#ff4495"/>
      <stop offset="1" stop-color="#ff6d6d"/>
    </linearGradient>
    <linearGradient id="linear-gradient-2" x1="0.5" x2="0.5" y2="1" gradientUnits="objectBoundingBox">
      <stop offset="0" stop-color="#ff6d6d"/>
      <stop offset="0.038" stop-color="#ff6d6d"/>
      <stop offset="1" stop-color="#ff4495"/>
    </linearGradient>
    <linearGradient id="linear-gradient-5" x1="0.5" x2="0.5" y2="1" gradientUnits="objectBoundingBox">
      <stop offset="0" stop-color="#ff6d6d"/>
      <stop offset="1" stop-color="#ff6d6d"/>
    </linearGradient>
    <linearGradient id="linear-gradient-8" x1="0.5" x2="0.5" y2="1" gradientUnits="objectBoundingBox">
      <stop offset="0" stop-color="#ff6d6d"/>
      <stop offset="1" stop-color="#ff4495"/>
    </linearGradient>
    <linearGradient id="linear-gradient-13" x1="0.5" x2="1" y2="0.981" gradientUnits="objectBoundingBox">
      <stop offset="0" stop-color="#ff6d6d"/>
      <stop offset="0.059" stop-color="#ff6d6d"/>
      <stop offset="1" stop-color="#ff4495"/>
    </linearGradient>
  </defs>
  <g id="training" transform="translate(-1316 -1689.75)">
    <line id="Line_322" data-name="Line 322" x2="3.518" transform="translate(1343.763 1711.024)" fill="none" stroke="#fff" stroke-linecap="round" stroke-width="0.5"/>
    <g id="Group_516" data-name="Group 516" transform="translate(1316 1723.603)">
      <circle id="Ellipse_461" data-name="Ellipse 461" cx="3.076" cy="3.076" r="3.076" transform="translate(4.101 1.025)" fill="url(#linear-gradient)"/>
      <path id="Rectangle_161" data-name="Rectangle 161" d="M9.638,0h0A3.692,3.692,0,0,1,13.33,3.692v6.562a0,0,0,0,1,0,0H0a0,0,0,0,1,0,0V9.638A9.638,9.638,0,0,1,9.638,0Z" transform="translate(0 7.178)" fill="url(#linear-gradient-2)"/>
      <path id="Rectangle_162" data-name="Rectangle 162" d="M3.692,0h0A9.638,9.638,0,0,1,13.33,9.638v.616a0,0,0,0,1,0,0H0a0,0,0,0,1,0,0V3.692A3.692,3.692,0,0,1,3.692,0Z" transform="translate(0 7.178)" opacity="0.8" fill="url(#linear-gradient)"/>
    </g>
    <g id="Group_517" data-name="Group 517" transform="translate(1330.354 1723.603)">
      <circle id="Ellipse_461-2" data-name="Ellipse 461" cx="3.076" cy="3.076" r="3.076" transform="translate(3.076 1.025)" fill="url(#linear-gradient)"/>
      <path id="Rectangle_161-2" data-name="Rectangle 161" d="M9.638,0h0A3.692,3.692,0,0,1,13.33,3.692v6.562a0,0,0,0,1,0,0H0a0,0,0,0,1,0,0V9.638A9.638,9.638,0,0,1,9.638,0Z" transform="translate(0 7.178)" fill="url(#linear-gradient-5)"/>
      <path id="Rectangle_162-2" data-name="Rectangle 162" d="M3.692,0h0A9.638,9.638,0,0,1,13.33,9.638v.616a0,0,0,0,1,0,0H0a0,0,0,0,1,0,0V3.692A3.692,3.692,0,0,1,3.692,0Z" transform="translate(0 7.178)" opacity="0.8" fill="url(#linear-gradient)"/>
    </g>
    <g id="Group_519" data-name="Group 519" transform="translate(1344.711 1723.603)">
      <circle id="Ellipse_461-3" data-name="Ellipse 461" cx="3.076" cy="3.076" r="3.076" transform="translate(3.076 1.025)" fill="url(#linear-gradient)"/>
      <path id="Rectangle_161-3" data-name="Rectangle 161" d="M9.638,0h0A3.692,3.692,0,0,1,13.33,3.692v6.562a0,0,0,0,1,0,0H0a0,0,0,0,1,0,0V9.638A9.638,9.638,0,0,1,9.638,0Z" transform="translate(0 7.178)" fill="url(#linear-gradient-8)"/>
      <path id="Rectangle_162-3" data-name="Rectangle 162" d="M3.692,0h0A9.638,9.638,0,0,1,13.33,9.638v.616a0,0,0,0,1,0,0H0a0,0,0,0,1,0,0V3.692A3.692,3.692,0,0,1,3.692,0Z" transform="translate(0 7.178)" opacity="0.8" fill="url(#linear-gradient)"/>
    </g>
    <g id="Group_518" data-name="Group 518" transform="translate(1316 1698.209)">
      <circle id="Ellipse_460" data-name="Ellipse 460" cx="4.101" cy="4.101" r="4.101" transform="translate(4.102 0)" fill="#ff6d6d"/>
      <circle id="Ellipse_461-4" data-name="Ellipse 461" cx="3.076" cy="3.076" r="3.076" transform="translate(5.127 2.051)" fill="url(#linear-gradient)"/>
      <path id="Rectangle_161-4" data-name="Rectangle 161" d="M11.862,0h0a4.544,4.544,0,0,1,4.544,4.544V12.3a0,0,0,0,1,0,0H0a0,0,0,0,1,0,0v-.442A11.862,11.862,0,0,1,11.862,0Z" transform="translate(0 9.228)" fill="url(#linear-gradient)"/>
      <path id="Rectangle_162-4" data-name="Rectangle 162" d="M4.544,0h0A11.862,11.862,0,0,1,16.406,11.862V12.3a0,0,0,0,1,0,0H0a0,0,0,0,1,0,0V4.544A4.544,4.544,0,0,1,4.544,0Z" transform="translate(0 9.228)" opacity="0.8" fill="url(#linear-gradient-8)"/>
    </g>
    <path id="Icon_awesome-chalkboard-teacher" data-name="Icon awesome-chalkboard-teacher" d="M42.4,0H14.711A3.523,3.523,0,0,0,11.25,3.575V7.8a5.691,5.691,0,0,1,4.614.77V4.614H41.242V25.378H36.628V20.764H27.4v4.614H21.9v4.614H42.4a3.523,3.523,0,0,0,3.461-3.575V3.575A3.523,3.523,0,0,0,42.4,0Z" transform="translate(1311.159 1689.75)" fill="url(#linear-gradient-13)"/>
  </g>
</svg>
